<svg xmlns="http://www.w3.org/2000/svg" version="1.0" width="493.000000pt" height="492.000000pt" viewBox="0 0 493.000000 492.000000" preserveAspectRatio="xMidYMid meet">

<g transform="translate(0.000000,492.000000) scale(0.100000,-0.100000)" fill="#000000" stroke="none">
<path d="M2220 4873 c-19 -2 -66 -8 -105 -14 -38 -6 -86 -13 -105 -16 -19 -2 -90 -18 -158 -34 -768 -186 -1401 -758 -1685 -1524 -100 -271 -138 -499 -136 -835 1 -316 30 -509 115 -765 116 -349 314 -665 589 -940 139 -139 254 -231 454 -365 l125 -84 20 29 c93 127 222 296 287 375 44 52 79 99 79 105 0 7 -11 22 -25 35 l-25 23 -135 -132 c-75 -73 -151 -139 -170 -147 -91 -38 -207 4 -246 90 -17 37 -19 70 -19 324 l0 282 -59 73 c-139 171 -272 512 -317 812 -22 148 -22 422 1 575 37 250 162 562 305 760 26 36 51 72 56 80 5 8 11 141 14 295 l5 280 28 41 c52 77 154 107 230 68 18 -9 80 -64 139 -121 l106 -105 89 35 c181 72 416 126 618 142 44 4 83 10 86 13 3 4 32 102 63 217 32 116 71 257 87 315 16 58 29 109 29 114 0 6 -255 6 -340 -1z" fill="#A5B4FC"/>
<path d="M2859 4813 c-5 -13 -9 -28 -9 -32 0 -5 -15 -60 -34 -122 -40 -132 -126 -441 -126 -450 0 -4 21 -10 48 -14 188 -27 465 -116 519 -167 17 -17 36 -29 41 -27 21 8 472 453 469 463 -6 21 -135 100 -272 166 -216 104 -299 132 -588 199 -35 8 -39 7 -48 -16z" fill="#A5B4FC"/>
<path d="M4118 4382 c-41 -5 -141 -71 -215 -142 -37 -36 -176 -169 -308 -295 -361 -345 -773 -743 -1030 -995 -126 -124 -294 -288 -372 -365 l-143 -139 -1 284 c0 157 -3 339 -5 405 l-5 120 -242 235 c-133 129 -288 279 -344 334 -57 55 -105 97 -108 94 -9 -9 -6 -3003 3 -3006 5 -1 89 80 188 180 99 101 246 248 327 327 82 80 158 156 169 170 19 25 20 38 18 316 -3 381 -2 447 9 443 5 -1 139 -127 297 -278 159 -151 296 -282 305 -290 8 -8 56 -53 105 -100 163 -155 267 -253 419 -395 182 -170 291 -274 545 -520 107 -103 221 -208 254 -232 141 -105 302 -92 430 34 68 67 91 120 90 213 0 148 38 104 -779 914 -423 419 -725 726 -725 736 0 10 177 191 422 431 232 228 559 551 728 719 345 343 354 355 354 475 0 199 -183 354 -386 327z" fill="#DDDDDD"/>
<path d="M4324 3418 l-235 -233 25 -62 c25 -59 70 -204 82 -262 36 -173 38 -194 38 -406 1 -143 -4 -246 -12 -295 -29 -161 -76 -327 -126 -442 l-15 -36 235 -231 c129 -127 241 -231 249 -231 17 0 128 225 179 362 100 271 146 521 153 835 8 360 -32 589 -163 928 -37 96 -151 305 -166 305 -5 0 -115 -105 -244 -232z" fill="#A5B4FC"/>
<path d="M3180 848 c-117 -59 -381 -126 -573 -146 -161 -16 -436 -1 -594 33 -18 4 -38 -18 -130 -150 -59 -85 -147 -210 -195 -277 -48 -68 -88 -126 -88 -130 0 -12 254 -87 365 -107 243 -44 561 -54 792 -26 169 21 402 75 555 130 121 44 379 167 428 205 l25 20 -244 237 c-134 131 -249 240 -255 243 -6 3 -45 -11 -86 -32z" fill="#A5B4FC"/>
</g>
</svg>