<svg version="1.0" xmlns="http://www.w3.org/2000/svg" width="489.000000pt" height="489.000000pt" viewBox="0 0 489.000000 489.000000" preserveAspectRatio="xMidYMid meet">
  <g transform="translate(0.000000,489.000000) scale(0.100000,-0.100000)" fill="#000000" stroke="none">
    <path d="M2165 4859 c-603 -66 -1139 -341 -1538 -789 -151 -170 -314 -412 -389 -580 -184 -408 -236 -666 -225 -1113 4 -185 10 -262 30 -377 51 -292 158 -566 324 -830 183 -291 410 -528 704 -732 66 -46 154 -101 197 -124 79 -42 306 -142 383 -169 95 -34 360 -95 477 -110 149 -19 461 -19 612 1 335 44 673 154 928 303 39 23 72 45 72 49 0 4 -112 116 -249 249 l-249 242 -55 -30 c-122 -66 -385 -134 -617 -160 -123 -14 -327 -7 -448 15 -136 25 -351 85 -437 122 -45 19 -85 34 -90 34 -5 0 -78 -68 -162 -151 l-152 -152 -50 5 c-67 7 -127 47 -152 101 -17 38 -19 69 -19 325 l0 282 -59 73 c-138 170 -270 508 -317 807 -22 139 -22 447 0 586 37 243 168 564 306 754 26 36 52 75 59 87 7 14 11 108 11 284 0 251 1 264 23 307 43 88 157 128 240 86 18 -10 80 -64 138 -120 59 -57 110 -104 113 -104 4 0 20 7 35 15 44 22 222 82 313 104 182 45 276 55 483 55 277 -1 457 -31 690 -116 70 -26 121 -51 142 -70 17 -17 36 -29 41 -27 5 2 114 106 242 231 142 139 229 231 225 238 -14 23 -153 105 -280 165 -258 123 -435 175 -745 220 -161 24 -409 30 -555 14z" fill="#93C5FD" opacity="0.3"/>
    <path d="M4093 4370 c-52 -12 -121 -58 -207 -139 -283 -267 -989 -949 -1636 -1580 l-215 -209 -6 121 c-3 67 -7 248 -8 402 l-2 280 -62 59 c-34 33 -145 141 -247 240 -102 99 -229 223 -282 275 -54 52 -100 93 -103 90 -6 -7 -7 -3000 0 -3007 2 -3 163 153 356 346 l352 351 -6 266 c-7 264 -1 478 14 473 7 -3 274 -255 489 -462 69 -67 164 -157 210 -201 205 -193 411 -387 485 -456 120 -111 263 -248 425 -405 338 -329 381 -359 510 -359 93 0 162 31 233 102 69 69 92 122 92 213 0 145 34 104 -781 913 -421 419 -724 726 -724 737 0 10 181 196 431 441 871 856 1024 1010 1049 1064 50 106 24 246 -65 344 -69 76 -206 122 -302 101z" fill="#60A5FA" />
        <path d="M4305 3408 l-236 -233 26 -62 c33 -82 72 -216 96 -333 30 -141 37 -438 15 -590 -26 -176 -73 -349 -130 -482 l-16 -36 236 -231 c130 -127 241 -231 248 -231 25 0 137 238 200 421 48 142 69 227 103 409 26 146 28 171 28 425 0 216 -4 289 -18 365 -36 190 -78 336 -148 515 -41 101 -146 295 -161 295 -4 0 -114 -105 -243 -232z" fill="#BFDBFE" opacity="0.05"/>
  </g>
</svg>
