<?xml version="1.0" standalone="no"?>
<!DOCTYPE svg PUBLIC "-//W3C//DTD SVG 20010904//EN"
 "http://www.w3.org/TR/2001/REC-SVG-20010904/DTD/svg10.dtd">
<svg version="1.0" xmlns="http://www.w3.org/2000/svg"
 width="2000.000000pt" height="530.000000pt" viewBox="0 0 2000.000000 530.000000"
 preserveAspectRatio="xMidYMid meet">
<rect width="100%" height="100%" fill="#FFFFFF" opacity="0.6"/>
<g transform="translate(0.000000,530.000000) scale(0.100000,-0.100000)"
fill="#1F2937" stroke="none">
<path d="M0 2650 l0 -2650 10000 0 10000 0 0 2650 0 2650 -10000 0 -10000 0 0
-2650z m17572 849 l3 -601 39 56 c65 95 179 172 312 212 80 25 256 25 338 0
198 -59 331 -195 392 -401 16 -54 18 -120 21 -637 l4 -578 -155 0 -155 0 -3
523 c-4 456 -6 529 -21 581 -35 119 -88 189 -180 238 -37 20 -57 23 -157 23
-110 0 -118 -1 -182 -33 -112 -55 -193 -160 -235 -307 -14 -52 -17 -124 -21
-542 l-3 -483 -155 0 -154 0 0 1275 0 1275 155 0 155 0 2 -601z m-15925 346
c227 -114 255 -131 251 -151 -4 -19 -533 -296 -557 -292 -14 3 -16 28 -19 213
-3 240 -1 263 33 299 43 47 80 38 292 -69z m3643 -797 c0 -944 -2 -984 -51
-1131 -72 -215 -239 -369 -448 -413 -94 -19 -257 -19 -352 0 -41 9 -112 34
-159 57 -144 71 -265 212 -315 367 -9 29 -14 56 -10 60 11 11 295 90 299 83 2
-3 11 -28 20 -56 26 -81 93 -158 173 -197 62 -30 75 -33 158 -33 71 1 100 5
140 23 68 31 128 93 160 164 53 118 54 141 55 1086 l0 872 165 0 165 0 0 -882z
m4988 -30 c139 -502 258 -931 264 -953 7 -25 13 -34 17 -25 3 8 129 436 281
950 l275 935 186 3 185 2 269 -917 c147 -505 273 -934 280 -953 l12 -35 11 40
c7 22 125 451 264 953 l252 912 178 0 177 0 -9 -27 c-5 -16 -160 -543 -345
-1173 -185 -630 -338 -1153 -341 -1163 -5 -16 -20 -17 -181 -15 l-175 3 -284
940 c-156 517 -287 947 -290 955 -5 13 -6 13 -13 0 -4 -8 -136 -439 -292 -957
l-284 -943 -175 0 -175 0 -343 1168 c-189 642 -345 1177 -349 1190 l-5 22 179
0 179 0 252 -912z m-8024 519 c131 -68 243 -132 248 -141 8 -14 6 -23 -8 -37
-20 -19 -445 -243 -496 -261 -57 -20 -58 -14 -58 281 0 286 2 297 50 287 14
-3 132 -61 264 -129z m6986 -167 l0 -230 210 0 210 0 0 -125 0 -125 -210 0
-211 0 3 -482 3 -483 25 -45 c36 -65 90 -90 196 -90 44 0 103 7 129 15 27 8
50 13 51 12 1 -1 4 -59 7 -128 l5 -126 -37 -11 c-74 -23 -188 -34 -276 -29
-245 16 -379 140 -415 384 -5 38 -10 274 -10 526 l0 457 -150 0 -150 0 0 125
0 125 150 0 150 0 0 230 0 230 160 0 160 0 0 -230z m5760 0 l0 -230 215 0 215
0 0 -125 0 -125 -215 0 -216 0 3 -472 c3 -430 5 -477 21 -513 23 -52 54 -84
96 -102 43 -18 181 -18 242 0 l46 14 7 -60 c3 -33 6 -91 6 -128 l0 -68 -37
-10 c-131 -34 -256 -40 -364 -17 -154 33 -255 124 -305 276 -16 49 -19 108
-24 565 l-5 510 -152 3 -153 3 0 124 0 124 153 3 152 3 3 228 2 227 155 0 155
0 0 -230z m-12137 -141 c249 -129 278 -149 261 -176 -6 -10 -126 -76 -267
-148 -212 -108 -259 -128 -274 -119 -17 10 -18 33 -21 279 -3 287 0 302 46
290 13 -3 128 -60 255 -126z m-1237 -15 c258 -132 285 -153 245 -185 -42 -34
-489 -259 -514 -259 -14 0 -29 5 -33 11 -7 12 -6 538 2 551 14 22 77 -2 300
-118z m6529 -59 c49 -14 121 -43 159 -63 66 -35 186 -138 186 -160 0 -9 -167
-158 -197 -176 -8 -4 -33 13 -66 47 -108 112 -265 158 -419 126 -128 -27 -198
-98 -198 -201 0 -118 75 -166 391 -247 360 -92 508 -227 509 -462 0 -289 -191
-472 -533 -509 -257 -28 -509 49 -675 205 l-75 71 112 96 112 96 62 -63 c69
-68 166 -124 256 -145 78 -18 223 -9 286 19 110 49 163 146 136 249 -28 102
-84 130 -465 236 -153 43 -233 83 -301 151 -91 90 -127 207 -106 347 40 262
292 427 631 413 73 -3 133 -12 195 -30z m5625 10 c213 -51 364 -195 427 -405
14 -46 17 -141 23 -595 4 -297 11 -557 15 -577 l8 -38 -141 0 c-120 0 -141 2
-146 16 -4 9 -11 61 -18 116 l-11 100 -25 -34 c-71 -93 -172 -166 -283 -205
-107 -38 -287 -44 -413 -14 -169 40 -296 135 -359 268 -31 66 -32 72 -32 198
0 113 3 138 24 189 64 161 282 283 581 325 74 11 374 31 459 31 l44 0 -6 74
c-10 139 -81 239 -203 286 -81 31 -243 39 -334 16 -84 -21 -213 -84 -268 -132
-24 -20 -47 -33 -51 -28 -4 5 -42 50 -84 100 l-76 91 27 25 c105 97 304 183
484 208 86 12 279 4 358 -15z m2747 14 c105 -14 245 -60 318 -104 56 -34 165
-130 165 -146 0 -10 -206 -179 -217 -179 -5 0 -27 18 -48 41 -147 151 -411
174 -601 51 -238 -154 -318 -528 -172 -805 40 -75 134 -172 204 -209 186 -100
436 -70 585 69 l49 46 47 -44 c171 -155 163 -145 147 -167 -20 -30 -130 -110
-194 -142 -304 -153 -736 -96 -984 131 -147 134 -240 332 -255 539 -14 203 23
385 111 535 63 108 192 230 303 287 183 93 352 123 542 97z m-10595 -561 c4
-454 6 -531 21 -581 36 -122 87 -191 175 -234 52 -26 67 -28 167 -28 105 0
114 2 177 33 114 56 195 163 235 312 16 58 18 118 18 542 l0 478 158 0 157 0
0 -688 c0 -379 3 -737 7 -795 l6 -107 -150 0 -150 0 -8 130 -7 130 -40 -61
c-106 -159 -332 -261 -538 -244 -265 23 -429 150 -511 400 -24 70 -24 74 -27
653 l-3 582 155 0 155 0 3 -522z m-3686 281 c251 -129 281 -151 256 -182 -6
-7 -125 -70 -266 -142 -211 -108 -258 -128 -273 -119 -17 10 -18 33 -21 279
-2 273 0 295 36 295 8 0 129 -59 268 -131z m1178 29 c110 -57 216 -116 233
-132 42 -36 43 -73 6 -108 -30 -27 -434 -238 -457 -238 -8 0 -17 7 -20 16 -3
9 -6 132 -6 274 0 142 3 265 6 274 3 9 13 16 21 16 8 0 106 -46 217 -102z
m-1804 -338 c129 -67 243 -131 252 -142 12 -14 15 -25 9 -37 -11 -20 -500
-271 -529 -271 -12 0 -25 7 -29 15 -13 23 -5 536 9 553 6 7 21 11 32 8 12 -3
127 -60 256 -126z m1249 -18 c135 -70 249 -134 255 -144 7 -11 6 -21 -3 -32
-8 -9 -123 -73 -257 -142 -174 -89 -252 -124 -271 -122 l-28 3 -3 270 c-1 148
0 275 3 282 11 30 71 7 304 -115z m-623 -309 c135 -71 250 -136 256 -146 7
-14 5 -23 -6 -36 -9 -10 -128 -75 -266 -145 -211 -108 -252 -125 -270 -116
-19 10 -20 20 -20 275 0 145 3 270 6 279 3 9 17 16 31 16 13 0 135 -57 269
-127z m-635 -309 c281 -145 289 -150 289 -168 0 -8 -92 -62 -217 -127 -247
-127 -280 -136 -330 -86 l-28 27 -7 227 c-7 236 -3 269 31 258 10 -3 128 -62
262 -131z" fill="#1F2937"/>
<path d="M13660 2303 c-277 -20 -439 -84 -495 -196 -41 -83 -32 -180 25 -249
62 -75 197 -113 348 -97 236 26 375 184 389 447 l6 102 -114 -2 c-63 -1 -134
-3 -159 -5z" fill="#1F2937"/>
</g>
</svg>
