<?xml version="1.0" encoding="UTF-8" standalone="no"?>
<svg version="1.0" width="551.71521pt" height="111.34934pt" viewBox="0 0 551.71522 111.34934"
   preserveAspectRatio="xMidYMid" id="svg2" sodipodi:docname="KinemiFyNameLogo.svg"
   inkscape:version="1.3.2 (091e20e, 2023-11-25)" xmlns:inkscape="http://www.inkscape.org/namespaces/inkscape"
   xmlns:sodipodi="http://sodipodi.sourceforge.net/DTD/sodipodi-0.dtd" xmlns="http://www.w3.org/2000/svg"
   xmlns:svg="http://www.w3.org/2000/svg" xmlns:rdf="http://www.w3.org/1999/02/22-rdf-syntax-ns#"
   xmlns:cc="http://creativecommons.org/ns#" xmlns:dc="http://purl.org/dc/elements/1.1/">
   <sodipodi:namedview id="namedview1" pagecolor="#ffffff" bordercolor="#000000" borderopacity="0.25"
      inkscape:showpageshadow="2" inkscape:pageopacity="0.0" inkscape:pagecheckerboard="0" inkscape:deskcolor="#d1d1d1"
      inkscape:document-units="pt" inkscape:zoom="0.89992081" inkscape:cx="367.25454" inkscape:cy="74.450995"
      inkscape:window-width="1312" inkscape:window-height="449" inkscape:window-x="0" inkscape:window-y="37"
      inkscape:window-maximized="0" inkscape:current-layer="KinemiFyNameLogo" />
   <title id="title13">KinemiFy Name Logo</title>
   <defs id="defs2" />
   <g transform="matrix(0.1,0,0,-0.1,-69.261588,123.55513)" fill="#000000" stroke="none" id="KinemiFyNameLogo">
      <g transform="matrix(0.22487571,0,0,0.22522153,690.00678,139.18868)" fill="#000000" stroke="none" id="KLogo">
         <path
            d="M 2165,4859 C 1562,4793 1026,4518 627,4070 476,3900 313,3658 238,3490 54,3082 2,2824 13,2377 17,2192 23,2115 43,2000 94,1708 201,1434 367,1170 550,879 777,642 1071,438 c 66,-46 154,-101 197,-124 79,-42 306,-142 383,-169 95,-34 360,-95 477,-110 149,-19 461,-19 612,1 335,44 673,154 928,303 39,23 72,45 72,49 0,4 -112,116 -249,249 l -249,242 -55,-30 c -122,-66 -385,-134 -617,-160 -123,-14 -327,-7 -448,15 -136,25 -351,85 -437,122 -45,19 -85,34 -90,34 -5,0 -78,-68 -162,-151 l -152,-152 -50,5 c -67,7 -127,47 -152,101 -17,38 -19,69 -19,325 v 282 l -59,73 c -138,170 -270,508 -317,807 -22,139 -22,447 0,586 37,243 168,564 306,754 26,36 52,75 59,87 7,14 11,108 11,284 0,251 1,264 23,307 43,88 157,128 240,86 18,-10 80,-64 138,-120 59,-57 110,-104 113,-104 4,0 20,7 35,15 44,22 222,82 313,104 182,45 276,55 483,55 277,-1 457,-31 690,-116 70,-26 121,-51 142,-70 17,-17 36,-29 41,-27 5,2 114,106 242,231 142,139 229,231 225,238 -14,23 -153,105 -280,165 -258,123 -435,175 -745,220 -161,24 -409,30 -555,14 z"
            fill="#fca5a5" opacity="0.3" id="KCircle" />
         <path
            d="m 4093,4370 c -52,-12 -121,-58 -207,-139 -283,-267 -989,-949 -1636,-1580 l -215,-209 -6,121 c -3,67 -7,248 -8,402 l -2,280 -62,59 c -34,33 -145,141 -247,240 -102,99 -229,223 -282,275 -54,52 -100,93 -103,90 -6,-7 -7,-3000 0,-3007 2,-3 163,153 356,346 l 352,351 -6,266 c -7,264 -1,478 14,473 7,-3 274,-255 489,-462 69,-67 164,-157 210,-201 205,-193 411,-387 485,-456 120,-111 263,-248 425,-405 338,-329 381,-359 510,-359 93,0 162,31 233,102 69,69 92,122 92,213 0,145 34,104 -781,913 -421,419 -724,726 -724,737 0,10 181,196 431,441 871,856 1024,1010 1049,1064 50,106 24,246 -65,344 -69,76 -206,122 -302,101 z"
            fill="#f87171" id="K" />
         <path
            d="m 4305,3408 -236,-233 26,-62 c 33,-82 72,-216 96,-333 30,-141 37,-438 15,-590 -26,-176 -73,-349 -130,-482 l -16,-36 236,-231 c 130,-127 241,-231 248,-231 25,0 137,238 200,421 48,142 69,227 103,409 26,146 28,171 28,425 0,216 -4,289 -18,365 -36,190 -78,336 -148,515 -41,101 -146,295 -161,295 -4,0 -114,-105 -243,-232 z"
            fill="#f6b0b0" opacity="0.05" id="KRightFill" />
      </g>
      <path id="inemi" style="fill:#ffffff;fill-opacity:1"
         d="M 1934.1296 1160.4927 C 1906.7546 1161.4927 1879.4967 1155.5063 1862.9967 1142.0064 C 1834.9968 1121.0064 1817.9948 1076.0044 1825.9948 1045.0044 C 1843.9948 974.00447 1953.0056 947.99274 2007.0055 1002.9927 C 2045.0055 1040.9926 2043.9947 1103.9966 2005.9948 1136.9966 C 1988.9948 1151.4966 1961.5045 1159.4927 1934.1296 1160.4927 z M 4730.0036 1159.9946 C 4628.0037 1159.9946 4590.9939 1031.0044 4679.9938 985.0044 C 4754.9937 946.00444 4840.0026 991.99471 4839.0026 1069.9946 C 4839.0026 1108.9946 4826.0065 1130.9976 4793.0065 1147.9976 C 4781.0065 1154.9976 4753.0036 1159.9946 4730.0036 1159.9946 z M 4279.2565 910.61963 C 4218.7566 911.49463 4155.9947 892.99948 4105.9948 854.99952 L 4070.9997 828.99854 L 4051.0046 848.99366 C 4040.0046 859.99365 4016.0065 876.99562 3998.0065 885.99561 C 3929.0066 921.99557 3790.0035 910.00435 3740.0036 865.0044 C 3717.0036 844.00442 3710.0036 845.99466 3710.0036 874.99463 C 3710.0036 899.99461 3708.9937 899.99952 3629.9938 899.99952 L 3549.9987 899.99952 L 3549.9987 614.99952 L 3549.9987 329.99952 L 3635.0036 329.99952 L 3719.9938 329.99952 L 3721.0046 487.99756 C 3721.0046 667.99738 3729.9978 704.00639 3778.9977 737.00635 C 3816.9977 763.00633 3845.9938 765.99266 3884.9938 747.99268 C 3932.9938 725.9927 3939.9987 697.00421 3939.9987 505.0044 L 3939.9987 329.99952 L 4029.9987 329.99952 L 4119.9987 329.99952 L 4119.9987 494.99952 C 4119.9987 690.99932 4128.0007 721.99661 4187.0006 746.99659 C 4236.0006 766.99657 4285.0026 754.99655 4314.0026 716.99659 C 4333.0026 690.99661 4334.9967 673.00326 4337.9967 509.00342 L 4341.9958 329.99952 L 4426.0046 329.99952 L 4509.9987 329.99952 L 4509.9987 522.99268 C 4509.9987 746.99246 4500.9977 790.00446 4438.9977 850.0044 C 4397.9978 889.50436 4339.7564 909.74464 4279.2565 910.61963 z M 2500.8044 909.31592 C 2447.9724 907.63624 2395.6188 892.87547 2354.9938 866.00049 C 2322.9938 845.00051 2319.9987 845.99466 2319.9987 874.99463 C 2319.9987 899.99461 2319.0035 899.99952 2240.0036 899.99952 L 2159.9938 899.99952 L 2159.9938 614.99952 L 2159.9938 329.99952 L 2244.0026 329.99952 L 2327.9967 329.99952 L 2331.9958 498.00245 C 2335.9958 688.00226 2343.9997 715.00443 2405.9997 745.0044 C 2452.9996 767.00438 2504.9929 758.9946 2538.9928 724.99463 C 2564.9928 699.99466 2564.9967 697.99445 2567.9967 514.99463 L 2570.9997 329.99952 L 2661.9958 329.99952 L 2753.0065 329.99952 L 2747.0006 528.00245 C 2744.0006 651.00232 2736.9977 739.99954 2728.9977 764.99952 C 2710.9977 817.99946 2645.9977 881.9927 2593.9977 897.99268 C 2564.3727 906.61767 2532.5035 910.32373 2500.8044 909.31592 z M 3160.7897 909.31592 C 3060.0554 910.81592 2961.9986 869.00335 2904.9987 794.00342 C 2863.9987 741.00348 2849.9938 696.0014 2849.9938 622.00147 C 2849.9938 493.0016 2897.9998 412.00337 3005.9997 359.00342 C 3114.9996 305.00348 3257.0037 307.99469 3350.0036 364.99463 C 3418.0035 407.99459 3419.0065 416.0064 3368.0065 467.00635 L 3321.9958 513.00245 L 3268.9977 486.00538 C 3210.9978 457.00541 3177.0016 454.00149 3118.0016 472.00147 C 3082.0017 483.00146 3029.9938 529.00052 3029.9938 551.00049 C 3029.9938 556.00049 3123.0017 561.00147 3238.0016 562.00147 L 3444.9987 565.0044 L 3448.0016 612.99268 C 3450.0016 638.99266 3443.9938 685.99662 3434.9938 716.99659 C 3412.9938 791.99651 3336.9996 867.99759 3260.9997 892.99756 C 3228.2497 903.49755 3194.3678 908.81592 3160.7897 909.31592 z M 1839.9987 899.99952 L 1839.9987 614.99952 L 1839.9987 329.99952 L 1929.9987 329.99952 L 2019.9987 329.99952 L 2019.9987 614.99952 L 2019.9987 899.99952 L 1929.9987 899.99952 L 1839.9987 899.99952 z M 4649.9938 899.99952 L 4649.9938 614.99952 L 4649.9938 329.99952 L 4734.9987 329.99952 L 4820.0036 329.99952 L 4820.0036 614.99952 L 4820.0036 899.99952 L 4734.9987 899.99952 L 4649.9938 899.99952 z M 3150.5651 774.77003 C 3153.6901 774.7544 3156.2565 774.49366 3158.0065 773.99366 C 3166.0065 771.99366 3181.0055 769.99463 3192.0055 769.99463 C 3216.0055 769.99463 3279.9987 709.00047 3279.9987 686.00049 C 3279.9987 672.00051 3263.0044 670.0044 3151.0046 670.0044 C 3027.0047 670.0044 3022.0055 670.99954 3027.0055 689.99952 C 3035.0055 718.99949 3078.0026 758.99855 3114.0026 768.99854 C 3126.7526 772.74854 3141.1901 774.8169 3150.5651 774.77003 z "
         transform="translate(2.5e-7,2.5e-5)" />
      <path id="Fy" fill="#f87171"
         d="m 5540,1000 v -70 h -195 -195 v -95 -95 h 170 170 V 670 600 H 5320 5150 V 465 330 h -85 -85 v 370 370 h 280 280 z m 268,-287 c 42,-101 78,-183 81,-183 3,0 40,82 82,183 l 75,182 81,3 82,3 -65,-153 C 6108,664 6044,514 6002,415 5914,209 5872,152 5790,130 c -84,-23 -227,11 -224,52 1,10 14,38 29,63 26,46 27,46 52,30 52,-35 136,-13 148,38 4,16 -29,103 -105,282 -62,143 -116,270 -121,283 l -9,23 87,-3 86,-3 z" />
   </g>
   <metadata id="metadata13">
      <rdf:RDF>
         <cc:Work rdf:about="">
            <dc:title>KinemiFy Name Logo</dc:title>
            <dc:creator>
               <cc:Agent>
                  <dc:title>KinemiFy</dc:title>
               </cc:Agent>
            </dc:creator>
         </cc:Work>
      </rdf:RDF>
   </metadata>
</svg>